<svg width="24" height="25" viewBox="0 0 24 25" fill="none" xmlns="http://www.w3.org/2000/svg">
<path d="M12 0.695312C5.37188 0.695312 0 6.06719 0 12.6953C0 17.7812 3.16406 22.1219 7.62656 23.8703C7.52344 22.9187 7.425 21.4656 7.66875 20.4297C7.88906 19.4922 9.075 14.4672 9.075 14.4672C9.075 14.4672 8.71406 13.75 8.71406 12.6859C8.71406 11.0172 9.67969 9.77031 10.8844 9.77031C11.9062 9.77031 12.4031 10.5391 12.4031 11.4625C12.4031 12.4937 11.7469 14.0312 11.4094 15.4562C11.1281 16.6516 12.0094 17.6266 13.1859 17.6266C15.3187 17.6266 16.9594 15.3766 16.9594 12.1328C16.9594 9.25937 14.8969 7.24844 11.9484 7.24844C8.53594 7.24844 6.52969 9.80781 6.52969 12.4562C6.52969 13.4875 6.92812 14.5937 7.425 15.1937C7.52344 15.3109 7.5375 15.4188 7.50937 15.5359C7.42031 15.9156 7.21406 16.7313 7.17656 16.8953C7.125 17.1156 7.00313 17.1625 6.77344 17.0547C5.27344 16.3562 4.33594 14.1672 4.33594 12.4047C4.33594 8.61719 7.0875 5.14375 12.2625 5.14375C16.425 5.14375 19.6594 8.11094 19.6594 12.0766C19.6594 16.2109 17.0531 19.5391 13.4344 19.5391C12.2203 19.5391 11.0766 18.9062 10.6828 18.1609C10.6828 18.1609 10.0828 20.4531 9.9375 21.0156C9.66562 22.0562 8.93437 23.3641 8.44687 24.1609C9.57187 24.5078 10.7625 24.6953 12 24.6953C18.6281 24.6953 24 19.3234 24 12.6953C24 6.06719 18.6281 0.695312 12 0.695312Z" fill="white"/>
</svg>
