<svg width="24" height="25" viewBox="0 0 24 25" fill="none" xmlns="http://www.w3.org/2000/svg">
<g clip-path="url(#clip0_208_6830)">
<path d="M22.2234 0.847656H1.77187C0.792187 0.847656 0 1.62109 0 2.57734V23.1133C0 24.0695 0.792187 24.8477 1.77187 24.8477H22.2234C23.2031 24.8477 24 24.0695 24 23.118V2.57734C24 1.62109 23.2031 0.847656 22.2234 0.847656ZM7.12031 21.2992H3.55781V9.84297H7.12031V21.2992ZM5.33906 8.28203C4.19531 8.28203 3.27188 7.35859 3.27188 6.21953C3.27188 5.08047 4.19531 4.15703 5.33906 4.15703C6.47813 4.15703 7.40156 5.08047 7.40156 6.21953C7.40156 7.35391 6.47813 8.28203 5.33906 8.28203ZM20.4516 21.2992H16.8937V15.7305C16.8937 14.4039 16.8703 12.693 15.0422 12.693C13.1906 12.693 12.9094 14.1414 12.9094 15.6367V21.2992H9.35625V9.84297H12.7687V11.4086H12.8156C13.2891 10.5086 14.4516 9.55703 16.1813 9.55703C19.7859 9.55703 20.4516 11.9289 20.4516 15.0133V21.2992Z" fill="#F7F7F7"/>
</g>
<defs>
<clipPath id="clip0_208_6830">
<rect width="24" height="24" fill="white" transform="translate(0 0.847656)"/>
</clipPath>
</defs>
</svg>
