<svg width="24" height="25" viewBox="0 0 24 25" fill="none" xmlns="http://www.w3.org/2000/svg">
<g clip-path="url(#clip0_208_6834)">
<path d="M12 3.00859C15.2063 3.00859 15.5859 3.02266 16.8469 3.07891C18.0188 3.13047 18.6516 3.32734 19.0734 3.49141C19.6313 3.70703 20.0344 3.96953 20.4516 4.38672C20.8734 4.80859 21.1313 5.20703 21.3469 5.76484C21.5109 6.18672 21.7078 6.82422 21.7594 7.99141C21.8156 9.25703 21.8297 9.63672 21.8297 12.8383C21.8297 16.0445 21.8156 16.4242 21.7594 17.6852C21.7078 18.857 21.5109 19.4898 21.3469 19.9117C21.1313 20.4695 20.8687 20.8727 20.4516 21.2898C20.0297 21.7117 19.6313 21.9695 19.0734 22.1852C18.6516 22.3492 18.0141 22.5461 16.8469 22.5977C15.5813 22.6539 15.2016 22.668 12 22.668C8.79375 22.668 8.41406 22.6539 7.15313 22.5977C5.98125 22.5461 5.34844 22.3492 4.92656 22.1852C4.36875 21.9695 3.96563 21.707 3.54844 21.2898C3.12656 20.868 2.86875 20.4695 2.65313 19.9117C2.48906 19.4898 2.29219 18.8523 2.24063 17.6852C2.18438 16.4195 2.17031 16.0398 2.17031 12.8383C2.17031 9.63203 2.18438 9.25234 2.24063 7.99141C2.29219 6.81953 2.48906 6.18672 2.65313 5.76484C2.86875 5.20703 3.13125 4.80391 3.54844 4.38672C3.97031 3.96484 4.36875 3.70703 4.92656 3.49141C5.34844 3.32734 5.98594 3.13047 7.15313 3.07891C8.41406 3.02266 8.79375 3.00859 12 3.00859ZM12 0.847656C8.74219 0.847656 8.33438 0.861719 7.05469 0.917969C5.77969 0.974219 4.90313 1.18047 4.14375 1.47578C3.35156 1.78516 2.68125 2.19297 2.01563 2.86328C1.34531 3.52891 0.9375 4.19922 0.628125 4.98672C0.332812 5.75078 0.126563 6.62266 0.0703125 7.89766C0.0140625 9.18203 0 9.58984 0 12.8477C0 16.1055 0.0140625 16.5133 0.0703125 17.793C0.126563 19.068 0.332812 19.9445 0.628125 20.7039C0.9375 21.4961 1.34531 22.1664 2.01563 22.832C2.68125 23.4977 3.35156 23.9102 4.13906 24.2148C4.90313 24.5102 5.775 24.7164 7.05 24.7727C8.32969 24.8289 8.7375 24.843 11.9953 24.843C15.2531 24.843 15.6609 24.8289 16.9406 24.7727C18.2156 24.7164 19.0922 24.5102 19.8516 24.2148C20.6391 23.9102 21.3094 23.4977 21.975 22.832C22.6406 22.1664 23.0531 21.4961 23.3578 20.7086C23.6531 19.9445 23.8594 19.0727 23.9156 17.7977C23.9719 16.518 23.9859 16.1102 23.9859 12.8523C23.9859 9.59453 23.9719 9.18672 23.9156 7.90703C23.8594 6.63203 23.6531 5.75547 23.3578 4.99609C23.0625 4.19922 22.6547 3.52891 21.9844 2.86328C21.3188 2.19766 20.6484 1.78516 19.8609 1.48047C19.0969 1.18516 18.225 0.978906 16.95 0.922656C15.6656 0.861719 15.2578 0.847656 12 0.847656Z" fill="#F7F7F7"/>
<path d="M12 6.68359C8.59688 6.68359 5.83594 9.44453 5.83594 12.8477C5.83594 16.2508 8.59688 19.0117 12 19.0117C15.4031 19.0117 18.1641 16.2508 18.1641 12.8477C18.1641 9.44453 15.4031 6.68359 12 6.68359ZM12 16.8461C9.79219 16.8461 8.00156 15.0555 8.00156 12.8477C8.00156 10.6398 9.79219 8.84922 12 8.84922C14.2078 8.84922 15.9984 10.6398 15.9984 12.8477C15.9984 15.0555 14.2078 16.8461 12 16.8461Z" fill="#F7F7F7"/>
<path d="M19.8469 6.43906C19.8469 7.23594 19.2 7.87813 18.4078 7.87813C17.6109 7.87813 16.9688 7.23125 16.9688 6.43906C16.9688 5.64219 17.6156 5 18.4078 5C19.2 5 19.8469 5.64688 19.8469 6.43906Z" fill="#F7F7F7"/>
</g>
<defs>
<clipPath id="clip0_208_6834">
<rect width="24" height="24" fill="white" transform="translate(0 0.847656)"/>
</clipPath>
</defs>
</svg>
