<svg width="24" height="25" viewBox="0 0 24 25" fill="none" xmlns="http://www.w3.org/2000/svg">
<g clip-path="url(#clip0_208_6832)">
<path d="M24 12.8477C24 6.22023 18.6274 0.847656 12 0.847656C5.37258 0.847656 0 6.22023 0 12.8477C0 18.8371 4.3882 23.8016 10.125 24.7019V16.3164H7.07812V12.8477H10.125V10.2039C10.125 7.19641 11.9166 5.53516 14.6576 5.53516C15.9701 5.53516 17.3438 5.76953 17.3438 5.76953V8.72266H15.8306C14.34 8.72266 13.875 9.64773 13.875 10.5977V12.8477H17.2031L16.6711 16.3164H13.875V24.7019C19.6118 23.8016 24 18.8371 24 12.8477Z" fill="#F7F7F7"/>
</g>
<defs>
<clipPath id="clip0_208_6832">
<rect width="24" height="24" fill="white" transform="translate(0 0.847656)"/>
</clipPath>
</defs>
</svg>
