<svg width="24" height="25" viewBox="0 0 24 25" fill="none" xmlns="http://www.w3.org/2000/svg">
<g clip-path="url(#clip0_208_6826)">
<path d="M17.0725 0.847656H13.0278V17.1955C13.0278 19.1433 11.4722 20.7433 9.53626 20.7433C7.60034 20.7433 6.04469 19.1433 6.04469 17.1955C6.04469 15.2825 7.56577 13.7172 9.43257 13.6477V9.54332C5.31872 9.61286 2 12.9868 2 17.1955C2 21.439 5.38786 24.8477 9.57085 24.8477C13.7538 24.8477 17.1416 21.4042 17.1416 17.1955V8.81286C18.6627 9.92592 20.5295 10.5868 22.5 10.6216V6.51722C19.4579 6.41288 17.0725 3.90852 17.0725 0.847656Z" fill="#F7F7F7"/>
</g>
<defs>
<clipPath id="clip0_208_6826">
<rect width="24" height="24" fill="white" transform="translate(0 0.847656)"/>
</clipPath>
</defs>
</svg>
